#!OML:ASF E:/inclinewalkrobotboard/Project1/Captureday1/Session1/subject1.ASF
:FULLY-SPECIFIED
:DEGREES
313
root 0 0 0 -3.3456077009478316 -4.978834663721605 -7.7108849673298785
lowerback 9.10781184612488 1.5257382247808482 5.875686889068186
upperback -0.24642800934727602 2.9431266103442684 2.9084008841510793
thorax -5.185139706490116 1.350925157321853 -0.6360360974777236
lowerneck -17.76963467710182 -3.5149824541308234 -1.9530780991193328
upperneck 22.485128017467407 -4.52376528151694 0.7793227960208914
head 10.210140466056185 -2.164705763284035 -0.045569459558027825
rclavicle -2.662644110948099E-15 1.412506683994078E-15
rhumerus -33.52397572203494 -20.54961832586762 -81.91296883735097
rradius 18.83997078188856
rwrist 8.603105479077389
rhand -17.928805111028904 26.321818986926203
rfingers 7.125020000000019
rthumb 8.355205544159935 -3.4363487932870953
lclavicle -5.777596133427636E-15 1.4857738762292693E-15
lhumerus -30.298216428867995 -0.5346729610766212 85.6158862430678
lradius 25.647651898511583
lwrist 5.842800012043215
lhand -27.924896303478633 26.286992096439377
lfingers 7.125020000000046
lthumb -1.3168464801499606 56.317580385757196
rfemur -2.2614177551615766 8.170361427154985 35.02444261858069
rtibia 31.14237514019988
rfoot -16.89587876926894 -5.7906208167789455
rtoes 8.10172990143851
lfemur -28.630668645599275 2.921507501572111 -10.50541583782364
ltibia 55.0163102361955
lfoot 0.9033444718078485 -5.7397001216212935
ltoes -8.644083083726233
314
root 0 0 0 -2.55653049844019 -5.605863069170731 -7.761453628241588
lowerback 11.5250910817832 2.0170668488596615 6.492680904497075
upperback 1.1623369427381849 3.6364314947508074 2.632712340928175
thorax -5.011563846840108 1.6744033627589636 -1.399517082489461
lowerneck -17.10146426170306 -3.6057816432193244 -2.1401379645182237
upperneck 22.36853633713954 -4.588001662203499 0.7786214252441136
head 10.045443966429515 -2.2177660253742277 -0.012870928470474552
rclavicle -2.674224637064569E-15 2.628136293503844E-15
rhumerus -32.181086804637935 -17.279421851126504 -82.310609590923
rradius 21.563346202927356
rwrist 7.471041062654064
rhand -18.347744267006085 27.882830926541047
rfingers 7.125020000000021
rthumb 7.951904594045275 -1.8956218696385463
lclavicle -6.138379076029012E-15 2.2076360540713388E-15
lhumerus -30.63593844318725 -0.32577124597644147 86.15227825208484
lradius 25.18933298883149
lwrist 5.728014958930053
lhand -27.858902740283177 26.35170506542566
lfingers 7.125020000000046
lthumb -1.2514843115447452 56.389626198155504
rfemur -0.6256981953031611 8.418347342133305 35.10213747589948
rtibia 28.60527948467174
rfoot -18.3816273443625 -6.100308814087992
rtoes 6.514548706570999
lfemur -30.8011130178591 1.7673947144475601 -9.782663425553949
ltibia 49.709239776403805
lfoot -1.0779687347791551 -2.763033610884564
ltoes -9.769522711656435
315
root 0 0 0 -2.3561385408231454 -5.921440147463507 -7.489608752737629
lowerback 11.783333553430909 2.2483586767052923 6.51308193185926
upperback 1.436537299739419 3.9067714777360205 2.299955523587644
thorax -4.8738020214549955 1.8024362286741566 -1.8008722949912337
lowerneck -17.112068661754094 -3.5614180863536116 -2.1517404564471923
upperneck 21.900449149091784 -4.547959440789836 0.8028470593988981
head 9.871411034664748 -2.1949761854524836 0.01149248670666747
rclavicle -2.9433808130830605E-15 2.171297474479072E-15
rhumerus -30.25063307458886 -14.519288195763327 -82.43675078318421
rradius 25.154321386320795
rwrist 7.64199228198131
rhand -19.019003118470827 29.30825480824275
rfingers 7.125020000000019
rthumb 7.305704779487254 -0.5420238996720741
lclavicle -6.5804757625268445E-15 1.5966272638437139E-15
lhumerus -30.42318322755779 -0.3221208750452518 86.38342242417865
lradius 24.93601324662901
lwrist 5.637350198592353
lhand -27.905457632559607 26.39118402802069
lfingers 7.125020000000046
lthumb -1.2943768482085751 56.435501821922884
rfemur 0.22583268422228908 8.466680774610618 35.2894752708484
rtibia 28.263795948545372
rfoot -19.18026530917485 -6.350594945424575
rtoes 4.126047927902496
lfemur -31.41488353783047 0.25397544155569873 -9.571230456972675
ltibia 40.584759051051606
lfoot -4.01879199759618 0.8260280905524899
ltoes -11.244186974409413
316
root 0 0 0 -2.2057668611524344 -5.980689565700706 -7.195395019872022
lowerback 11.774911963102278 2.3806806455276233 6.440095103983836
upperback 1.5231326323280376 4.033966033467968 2.0083921604109163
thorax -4.789599799064272 1.86433260474158 -2.0841687114966723
lowerneck -17.0733386786127 -3.549343877549272 -2.160946090357245
upperneck 21.624713003433293 -4.579130613962716 0.8657172265193094
head 9.738317631034619 -2.199011927173051 0.03625562099490606
rclavicle -3.419735800768863E-15 1.5731713963422267E-15
rhumerus -29.082173481746324 -13.251805783650934 -82.53345909231012
rradius 27.601786661317547
rwrist 7.934615357927265
rhand -19.599698157029888 29.87105570692306
rfingers 7.1250200000000135
rthumb 6.746644296353181 -0.05565318570289435
lclavicle -7.0685438332371195E-15 9.152591070630623E-16
lhumerus -30.332485817013946 -0.17634369130817032 86.24794890672119
lradius 24.69198681650837
lwrist 5.48233774955615
lhand -27.958582821513886 26.482329421274866
lfingers 7.125020000000046
lthumb -1.3479737119818935 56.528744228700646
rfemur 0.2930397583132791 8.280439384433455 35.23359556888981
rtibia 29.525122315819132
rfoot -19.068777359640276 -6.480842301745512
rtoes 1.8542664106036393
lfemur -30.510864312539876 -1.428042457213079 -10.579953604866004
ltibia 30.807169281459355
lfoot -6.834535527048568 3.7357411036955557
ltoes -9.28846346275947
